<?xml version="1.0" encoding="utf-8"?>
<!-- Generator: Adobe Illustrator 16.0.0, SVG Export Plug-In . SVG Version: 6.00 Build 0)  -->
<!DOCTYPE svg PUBLIC "-//W3C//DTD SVG 1.1//EN" "http://www.w3.org/Graphics/SVG/1.1/DTD/svg11.dtd">
<svg version="1.1" id="Layer_1" xmlns="http://www.w3.org/2000/svg" xmlns:xlink="http://www.w3.org/1999/xlink" x="0px" y="0px"
	 width="174.117px" height="415.411px" viewBox="0 0 174.117 415.411" enable-background="new 0 0 174.117 415.411"
	 xml:space="preserve">
<circle fill="none" stroke="#000000" stroke-width="17" stroke-miterlimit="10" cx="113.5" cy="358.411" r="44.666"/>
<polygon fill="#D1B38B" points="149.75,189.077 129.75,196.411 84.333,196.411 68.5,192.577 60,147.411 60,81.411 154,81.411 
	154,125.661 160,134.161 154,135.911 154,148.161 143.75,157.161 154,164.994 "/>
<polygon fill="#801FCC" points="157.25,81.411 137,7.536 119,67.474 96,30.411 96,59.411 81.625,45.411 69.5,60.911 6,44.411 
	42.5,84.411 54.5,100.411 60,115.411 107,115.411 112,145.411 120,145.411 117,102.536 154,92.724 "/>
<rect x="137" y="108.411" fill="#801FCC" width="17" height="4"/>
<rect x="140" y="115.411" fill="#310E54" width="14" height="2"/>
<polygon fill="#22D700" points="149.771,161.714 152.25,167.661 147,169.161 145.5,176.38 140.5,189.396 137,190.661 137,183.411 
	139.25,178.661 134.25,175.661 129.75,174.099 131,169.411 145.5,158.484 "/>
<polygon fill="#22D700" points="145.095,166.955 150.57,170.353 147.17,174.625 150.147,181.371 146.388,186.86 143.131,174.133 "/>
<polyline fill="none" stroke="#310E54" stroke-miterlimit="10" points="103.75,134.078 87.5,126.744 87.5,141.411 109.625,154.078 
	"/>
<rect x="82" y="190.411" fill="#D1B38B" width="55" height="32"/>
<path fill="#33220D" d="M157,358.411c0,0-29.542-35-43.5-35s-43.5,35-43.5,35v-142h87V358.411z"/>
<rect x="107" y="269.411" width="11" height="90"/>
<circle cx="112.5" cy="358.411" r="10.5"/>
</svg>
